<svg width="850" height="1065" viewBox="0 0 850 1065" fill="none" xmlns="http://www.w3.org/2000/svg">
<g opacity="0.05">
<path d="M390.973 808.595C399.08 808.595 405.651 802.068 405.651 794.016C405.651 785.964 399.08 779.436 390.973 779.436C382.867 779.436 376.295 785.964 376.295 794.016C376.295 802.068 382.867 808.595 390.973 808.595Z" fill="white"/>
<path fill-rule="evenodd" clip-rule="evenodd" d="M312.245 742.988C312.245 671.618 370.494 613.762 442.347 613.762C514.2 613.762 572.449 671.618 572.449 742.988C572.449 814.357 514.2 872.214 442.347 872.214C370.494 872.214 312.245 814.357 312.245 742.988ZM537.755 742.988C537.755 795.326 495.039 837.754 442.347 837.754C389.654 837.754 346.939 795.326 346.939 742.988C346.939 690.65 389.654 648.222 442.347 648.222C451.178 648.222 459.729 649.414 467.846 651.644C448.633 659.03 435.008 677.559 435.008 699.25C435.008 727.432 458.009 750.278 486.381 750.278C508.219 750.278 526.874 736.744 534.31 717.661C536.555 725.723 537.755 734.216 537.755 742.988Z" fill="white"/>
<path fill-rule="evenodd" clip-rule="evenodd" d="M459.694 407C348.426 407 252.021 470.063 204.668 562.1C91.315 563.953 0 655.801 0 768.833C0 883.024 93.1979 975.595 208.163 975.595H607.801L771.939 1065V924.275C850.006 867.709 850.002 788.34 850 743.703V742.988C850 681.841 819.455 627.801 772.749 595.067C788.447 576.972 797.959 553.395 797.959 527.611C797.959 470.515 751.36 424.23 693.878 424.23C664.692 424.23 638.318 436.172 619.435 455.362C573.807 424.828 518.826 407 459.694 407ZM442.347 579.301C351.333 579.301 277.551 652.586 277.551 742.988C277.551 833.389 351.333 906.674 442.347 906.674C533.361 906.674 607.143 833.389 607.143 742.988C607.143 652.586 533.361 579.301 442.347 579.301ZM676.531 493.151C666.95 493.151 659.184 500.865 659.184 510.381V544.841C659.184 554.357 666.95 562.071 676.531 562.071H711.225C720.805 562.071 728.571 554.357 728.571 544.841V510.381C728.571 500.865 720.805 493.151 711.225 493.151H676.531Z" fill="white"/>
</g>
<g opacity="0.05">
<path d="M517.889 172.112C521.37 172.112 524.192 169.315 524.192 165.864C524.192 162.413 521.37 159.616 517.889 159.616C514.407 159.616 511.586 162.413 511.586 165.864C511.586 169.315 514.407 172.112 517.889 172.112Z" fill="white"/>
<path fill-rule="evenodd" clip-rule="evenodd" d="M484.082 143.995C484.082 113.408 509.094 88.6122 539.949 88.6122C570.804 88.6122 595.816 113.408 595.816 143.995C595.816 174.582 570.804 199.377 539.949 199.377C509.094 199.377 484.082 174.582 484.082 143.995ZM580.918 143.995C580.918 166.425 562.576 184.609 539.949 184.609C517.322 184.609 498.98 166.425 498.98 143.995C498.98 121.564 517.322 103.381 539.949 103.381C543.741 103.381 547.413 103.892 550.899 104.848C542.648 108.013 536.797 115.954 536.797 125.25C536.797 137.328 546.674 147.119 558.858 147.119C568.235 147.119 576.246 141.319 579.439 133.14C580.403 136.595 580.918 140.235 580.918 143.995Z" fill="white"/>
<path fill-rule="evenodd" clip-rule="evenodd" d="M547.398 0C499.618 0 458.221 27.0268 437.887 66.4714C389.212 67.2657 350 106.629 350 155.071C350 204.01 390.02 243.683 439.388 243.683H610.997L681.48 282V221.689C715.003 197.447 715.001 163.432 715 144.301V143.995C715 117.789 701.884 94.6292 681.828 80.6001C688.568 72.845 692.653 62.7407 692.653 51.6904C692.653 27.2209 672.643 7.38435 647.959 7.38435C635.427 7.38435 624.101 12.5024 615.993 20.7264C596.4 7.6406 572.79 0 547.398 0ZM539.949 73.8435C500.866 73.8435 469.184 105.251 469.184 143.995C469.184 182.738 500.866 214.146 539.949 214.146C579.032 214.146 610.714 182.738 610.714 143.995C610.714 105.251 579.032 73.8435 539.949 73.8435ZM640.51 36.9217C636.396 36.9217 633.061 40.2278 633.061 44.3061V59.0748C633.061 63.1531 636.396 66.4591 640.51 66.4591H655.408C659.522 66.4591 662.857 63.1531 662.857 59.0748V44.3061C662.857 40.2278 659.522 36.9217 655.408 36.9217H640.51Z" fill="white"/>
</g>
</svg>
