<svg width="1247" height="972" viewBox="0 0 1247 972" fill="none" xmlns="http://www.w3.org/2000/svg">
<g opacity="0.6">
<path d="M573.581 593.238C585.474 593.238 595.115 583.595 595.115 571.701C595.115 559.806 585.474 550.164 573.581 550.164C561.688 550.164 552.047 559.806 552.047 571.701C552.047 583.595 561.688 593.238 573.581 593.238Z" fill="white"/>
<path fill-rule="evenodd" clip-rule="evenodd" d="M458.082 496.322C458.082 390.895 543.536 305.429 648.949 305.429C754.362 305.429 839.816 390.895 839.816 496.322C839.816 601.75 754.362 687.216 648.949 687.216C543.536 687.216 458.082 601.75 458.082 496.322ZM788.918 496.322C788.918 573.636 726.252 636.311 648.949 636.311C571.646 636.311 508.98 573.636 508.98 496.322C508.98 419.009 571.646 356.334 648.949 356.334C661.905 356.334 674.45 358.095 686.358 361.39C658.171 372.299 638.182 399.671 638.182 431.712C638.182 473.343 671.926 507.091 713.55 507.091C745.587 507.091 772.955 487.099 783.864 458.909C787.158 470.818 788.918 483.365 788.918 496.322Z" fill="white"/>
<path fill-rule="evenodd" clip-rule="evenodd" d="M674.398 0C511.162 0 369.729 93.1563 300.26 229.114C133.964 231.852 0 367.53 0 534.501C0 703.185 136.727 839.93 305.388 839.93H891.679L1132.48 972V764.121C1247.01 680.56 1247 563.317 1247 497.379V496.322C1247 405.996 1202.19 326.169 1133.67 277.813C1156.7 251.083 1170.65 216.255 1170.65 178.167C1170.65 93.8251 1102.29 25.4524 1017.96 25.4524C975.143 25.4524 936.45 43.0932 908.748 71.4399C841.809 26.3357 761.149 0 674.398 0ZM648.949 254.524C515.426 254.524 407.184 362.781 407.184 496.322C407.184 629.864 515.426 738.121 648.949 738.121C782.472 738.121 890.714 629.864 890.714 496.322C890.714 362.781 782.472 254.524 648.949 254.524ZM992.51 127.262C978.455 127.262 967.061 138.658 967.061 152.715V203.619C967.061 217.676 978.455 229.072 992.51 229.072H1043.41C1057.46 229.072 1068.86 217.676 1068.86 203.619V152.715C1068.86 138.658 1057.46 127.262 1043.41 127.262H992.51Z" fill="white"/>
</g>
</svg>
