<svg width="365" height="282" viewBox="0 0 365 282" fill="none" xmlns="http://www.w3.org/2000/svg">
<g opacity="0.05">
<path d="M167.889 172.112C171.37 172.112 174.192 169.315 174.192 165.864C174.192 162.413 171.37 159.616 167.889 159.616C164.408 159.616 161.586 162.413 161.586 165.864C161.586 169.315 164.408 172.112 167.889 172.112Z" fill="white"/>
<path fill-rule="evenodd" clip-rule="evenodd" d="M134.082 143.995C134.082 113.408 159.094 88.6122 189.949 88.6122C220.804 88.6122 245.816 113.408 245.816 143.995C245.816 174.582 220.804 199.377 189.949 199.377C159.094 199.377 134.082 174.582 134.082 143.995ZM230.918 143.995C230.918 166.425 212.576 184.609 189.949 184.609C167.322 184.609 148.98 166.425 148.98 143.995C148.98 121.564 167.322 103.381 189.949 103.381C193.741 103.381 197.413 103.892 200.899 104.848C192.648 108.013 186.797 115.954 186.797 125.25C186.797 137.328 196.674 147.119 208.858 147.119C218.235 147.119 226.246 141.319 229.439 133.14C230.403 136.595 230.918 140.235 230.918 143.995Z" fill="white"/>
<path fill-rule="evenodd" clip-rule="evenodd" d="M197.398 0C149.618 0 108.221 27.0268 87.887 66.4714C39.2117 67.2657 0 106.629 0 155.071C0 204.01 40.0203 243.684 89.3878 243.684H260.997L331.48 282V221.689C365.003 197.447 365.001 163.432 365 144.301V143.995C365 117.789 351.884 94.6292 331.828 80.6001C338.568 72.845 342.653 62.7407 342.653 51.6904C342.653 27.2209 322.643 7.38435 297.959 7.38435C285.427 7.38435 274.101 12.5024 265.993 20.7264C246.4 7.6406 222.79 0 197.398 0ZM189.949 73.8435C150.866 73.8435 119.184 105.251 119.184 143.995C119.184 182.738 150.866 214.146 189.949 214.146C229.032 214.146 260.714 182.738 260.714 143.995C260.714 105.251 229.032 73.8435 189.949 73.8435ZM290.51 36.9217C286.396 36.9217 283.061 40.2278 283.061 44.3061V59.0748C283.061 63.1531 286.396 66.4591 290.51 66.4591H305.408C309.522 66.4591 312.857 63.1531 312.857 59.0748V44.3061C312.857 40.2278 309.522 36.9217 305.408 36.9217H290.51Z" fill="white"/>
</g>
</svg>
