<svg width="177" height="38" viewBox="0 0 177 38" fill="none" xmlns="http://www.w3.org/2000/svg">
<path fill-rule="evenodd" clip-rule="evenodd" d="M12.5128 11.5682C14.6708 6.89591 19.3969 3.65691 24.8776 3.65691C27.9759 3.65691 30.83 4.6909 33.1174 6.43311L33.8997 7.02898L34.4586 6.21982C35.1377 5.23669 36.2696 4.59568 37.551 4.59568C39.6249 4.59568 41.3061 6.2769 41.3061 8.35079C41.3061 9.61321 40.6841 10.7304 39.7256 11.4126L38.4788 12.3001L39.8349 13.0093C42.3853 14.3431 44.1225 17.0122 44.1225 20.0855C44.1225 22.5808 44.098 26.1708 40.316 28.6921L39.898 28.9708V34.4592L33.3738 30.8814H11.2653C6.08059 30.8814 1.87755 26.6784 1.87755 21.4936C1.87755 16.3089 6.08059 12.1059 11.2653 12.1059C11.3859 12.1059 11.5058 12.1082 11.6252 12.1126L12.2504 12.1362L12.5128 11.5682ZM24.8776 1.77936C18.856 1.77936 13.6388 5.21529 11.0762 10.2299C4.94175 10.3309 0 15.3352 0 21.4936C0 27.7153 5.04365 32.7589 11.2653 32.7589H32.8927L41.7755 37.6301V29.9628C46.0003 26.8808 46.0001 22.5565 46 20.1244V20.0855C46 16.7539 44.347 13.8096 41.8194 12.0261C42.6689 11.0402 43.1837 9.75561 43.1837 8.35079C43.1837 5.23996 40.6618 2.71813 37.551 2.71813C35.9716 2.71813 34.5443 3.36879 33.5224 4.41431C31.0531 2.75071 28.0777 1.77936 24.8776 1.77936ZM16.8977 20.0855C16.8977 16.197 20.05 13.0447 23.9385 13.0447C27.8271 13.0447 30.9793 16.197 30.9793 20.0855C30.9793 23.974 27.8271 27.1263 23.9385 27.1263C20.05 27.1263 16.8977 23.974 16.8977 20.0855ZM23.9385 11.1671C19.013 11.1671 15.0202 15.16 15.0202 20.0855C15.0202 25.011 19.013 29.0039 23.9385 29.0039C28.864 29.0039 32.8569 25.011 32.8569 20.0855C32.8569 15.16 28.864 11.1671 23.9385 11.1671ZM29.8535 20.0854C29.8535 23.352 27.2055 26 23.939 26C20.6724 26 18.0244 23.352 18.0244 20.0854C18.0244 16.8189 20.6724 14.1709 23.939 14.1709C24.4865 14.1709 25.0166 14.2453 25.5198 14.3845C24.3288 14.8455 23.4842 16.0019 23.4842 17.3556C23.4842 19.1145 24.91 20.5404 26.6689 20.5404C28.0226 20.5404 29.179 19.6959 29.64 18.505C29.7792 19.0081 29.8535 19.5381 29.8535 20.0854ZM20.7535 24.1802C21.256 24.1802 21.6634 23.7728 21.6634 23.2703C21.6634 22.7677 21.256 22.3603 20.7535 22.3603C20.251 22.3603 19.8436 22.7677 19.8436 23.2703C19.8436 23.7728 20.251 24.1802 20.7535 24.1802ZM36.6737 6.47322C36.1214 6.47322 35.6737 6.92093 35.6737 7.47322V9.22832C35.6737 9.7806 36.1214 10.2283 36.6737 10.2283H38.4288C38.9811 10.2283 39.4288 9.7806 39.4288 9.22832V7.47322C39.4288 6.92093 38.9811 6.47322 38.4288 6.47322H36.6737Z" fill="#B81840"/>
<path d="M66.6411 25.0581C66.6411 26.4028 66.1401 27.4399 65.1382 28.1694C64.1362 28.8989 62.73 29.2637 60.9194 29.2637C59.0034 29.2637 57.5093 28.9604 56.437 28.354V26.3237C57.1313 26.6753 57.874 26.9521 58.665 27.1543C59.4648 27.3564 60.2339 27.4575 60.9722 27.4575C62.1147 27.4575 62.9937 27.2773 63.6089 26.917C64.2241 26.5479 64.5317 25.9897 64.5317 25.2427C64.5317 24.6802 64.2856 24.2012 63.7935 23.8057C63.3101 23.4014 62.3608 22.9268 60.9458 22.3818C59.6011 21.8809 58.6431 21.4458 58.0718 21.0767C57.5093 20.6987 57.0874 20.2725 56.8062 19.7979C56.5337 19.3232 56.3975 18.7563 56.3975 18.0972C56.3975 16.9194 56.8765 15.9922 57.8345 15.3154C58.7925 14.6299 60.1064 14.2871 61.7764 14.2871C63.332 14.2871 64.8525 14.6035 66.3379 15.2363L65.5601 17.0161C64.1099 16.4185 62.7959 16.1196 61.6182 16.1196C60.5811 16.1196 59.7988 16.2822 59.2715 16.6074C58.7441 16.9326 58.4805 17.3809 58.4805 17.9521C58.4805 18.3389 58.5771 18.6685 58.7705 18.9409C58.9727 19.2134 59.2935 19.4727 59.7329 19.7188C60.1724 19.9648 61.0161 20.3208 62.2642 20.7866C63.978 21.4106 65.1338 22.0391 65.7314 22.6719C66.3379 23.3047 66.6411 24.1001 66.6411 25.0581ZM80.1016 29V19.6528C80.1016 18.4751 79.8335 17.5962 79.2974 17.0161C78.7612 16.436 77.9219 16.146 76.7793 16.146C75.2588 16.146 74.147 16.5591 73.4438 17.3853C72.7495 18.2114 72.4023 19.5649 72.4023 21.4458V29H70.2139V8.48633H72.4023V14.6958C72.4023 15.4429 72.3672 16.0625 72.2969 16.5547H72.4287C72.8594 15.8604 73.4702 15.3154 74.2612 14.9199C75.061 14.5156 75.9707 14.3135 76.9902 14.3135C78.7568 14.3135 80.0796 14.7354 80.9585 15.5791C81.8462 16.4141 82.29 17.7456 82.29 19.5737V29H80.1016ZM95.6846 29L95.2495 26.9434H95.144C94.4233 27.8486 93.7026 28.4639 92.9819 28.7891C92.27 29.1055 91.3779 29.2637 90.3057 29.2637C88.873 29.2637 87.748 28.8945 86.9307 28.1562C86.1221 27.418 85.7178 26.3677 85.7178 25.0054C85.7178 22.0874 88.0513 20.5581 92.7183 20.4175L95.1704 20.3384V19.4419C95.1704 18.3081 94.9243 17.4731 94.4321 16.937C93.9487 16.3921 93.1709 16.1196 92.0986 16.1196C90.8945 16.1196 89.5322 16.4888 88.0117 17.2271L87.3394 15.5527C88.0513 15.166 88.8291 14.8628 89.6729 14.6431C90.5254 14.4233 91.3779 14.3135 92.2305 14.3135C93.9531 14.3135 95.2275 14.6958 96.0537 15.4604C96.8887 16.2251 97.3062 17.4512 97.3062 19.1387V29H95.6846ZM90.7407 27.4575C92.103 27.4575 93.1709 27.084 93.9443 26.3369C94.7266 25.5898 95.1177 24.5439 95.1177 23.1992V21.894L92.9292 21.9863C91.189 22.0479 89.9321 22.3203 89.1587 22.8037C88.394 23.2783 88.0117 24.021 88.0117 25.0317C88.0117 25.8228 88.249 26.4248 88.7236 26.8379C89.207 27.251 89.8794 27.4575 90.7407 27.4575ZM108.42 14.2871C109.062 14.2871 109.637 14.3398 110.147 14.4453L109.844 16.4756C109.246 16.3438 108.719 16.2778 108.262 16.2778C107.093 16.2778 106.091 16.7524 105.256 17.7017C104.43 18.6509 104.017 19.833 104.017 21.248V29H101.828V14.5508H103.634L103.885 17.2271H103.99C104.526 16.2866 105.172 15.5615 105.928 15.0518C106.684 14.542 107.515 14.2871 108.42 14.2871ZM121.999 29L121.221 26.9961H121.116C120.439 27.8486 119.74 28.4419 119.02 28.7759C118.308 29.1011 117.376 29.2637 116.225 29.2637C114.81 29.2637 113.693 28.8594 112.876 28.0508C112.067 27.2422 111.663 26.0908 111.663 24.5967C111.663 23.0322 112.208 21.8809 113.298 21.1426C114.396 20.3955 116.049 19.9824 118.255 19.9033L120.812 19.8242V19.1782C120.812 17.6841 120.048 16.937 118.519 16.937C117.341 16.937 115.957 17.293 114.366 18.0049L113.034 15.2891C114.73 14.4014 116.611 13.9575 118.677 13.9575C120.654 13.9575 122.17 14.3882 123.225 15.2495C124.28 16.1108 124.807 17.4204 124.807 19.1782V29H121.999ZM120.812 22.1709L119.257 22.2236C118.088 22.2588 117.218 22.4697 116.646 22.8564C116.075 23.2432 115.79 23.832 115.79 24.623C115.79 25.7568 116.44 26.3237 117.741 26.3237C118.672 26.3237 119.415 26.0557 119.969 25.5195C120.531 24.9834 120.812 24.2715 120.812 23.3838V22.1709ZM132.981 29H128.96V8.48633H132.981V29ZM137.042 10.4507C137.042 9.14111 137.771 8.48633 139.23 8.48633C140.689 8.48633 141.418 9.14111 141.418 10.4507C141.418 11.0747 141.234 11.5625 140.865 11.9141C140.504 12.2568 139.959 12.4282 139.23 12.4282C137.771 12.4282 137.042 11.769 137.042 10.4507ZM141.234 29H137.213V14.2607H141.234V29ZM149.329 20.9844L151.082 18.7432L155.208 14.2607H159.744L153.89 20.6548L160.1 29H155.459L151.214 23.0278L149.487 24.4121V29H145.466V8.48633H149.487V17.6357L149.276 20.9844H149.329ZM168.313 16.8447C167.46 16.8447 166.792 17.1172 166.309 17.6621C165.826 18.1982 165.549 18.9629 165.479 19.9561H171.121C171.104 18.9629 170.844 18.1982 170.343 17.6621C169.842 17.1172 169.166 16.8447 168.313 16.8447ZM168.88 29.2637C166.507 29.2637 164.652 28.6089 163.316 27.2993C161.98 25.9897 161.312 24.1353 161.312 21.7358C161.312 19.2661 161.928 17.3589 163.158 16.0142C164.397 14.6606 166.107 13.9839 168.287 13.9839C170.37 13.9839 171.991 14.5771 173.151 15.7637C174.312 16.9502 174.892 18.5894 174.892 20.6812V22.6323H165.386C165.43 23.7749 165.769 24.667 166.401 25.3086C167.034 25.9502 167.922 26.271 169.064 26.271C169.952 26.271 170.792 26.1787 171.583 25.9941C172.374 25.8096 173.2 25.5151 174.061 25.1108V28.2222C173.358 28.5737 172.606 28.833 171.807 29C171.007 29.1758 170.031 29.2637 168.88 29.2637Z" fill="black"/>
</svg>
